<?xml version="1.0" encoding="UTF-8" standalone="no"?>
<!-- Created with Inkscape (http://www.inkscape.org/) -->

<svg
   width="300mm"
   height="130mm"
   viewBox="0 0 300 130"
   version="1.1"
   id="svg5"
   inkscape:version="1.2.2 (b0a8486541, 2022-12-01)"
   sodipodi:docname="jos-logo.svg"
   inkscape:export-filename="jos-logo.png"
   inkscape:export-xdpi="96"
   inkscape:export-ydpi="96"
   xml:space="preserve"
   xmlns:inkscape="http://www.inkscape.org/namespaces/inkscape"
   xmlns:sodipodi="http://sodipodi.sourceforge.net/DTD/sodipodi-0.dtd"
   xmlns="http://www.w3.org/2000/svg"
   xmlns:svg="http://www.w3.org/2000/svg">
    <g
     inkscape:label="Layer 1"
     inkscape:groupmode="layer"
     id="layer1"><g
       id="g8539"><g
         aria-label="OS"
         transform="scale(1.1280971,0.88644851)"
         id="text7580"
         style="font-weight:bold;font-size:139.506px;-inkscape-font-specification:'sans-serif Bold';fill:#0000ff;stroke-width:0.112417;stroke-dashoffset:0.2"><path
           d="m 131.00253,73.326353 q 0,6.27777 0.41852,11.858009 0.55803,5.440734 1.95309,9.486408 1.53456,4.045674 4.18518,6.41728 2.65061,2.3716 7.1148,2.3716 4.32469,0 6.9753,-2.3716 2.79012,-2.371606 4.18518,-6.41728 1.53457,-4.18518 1.95309,-9.625914 0.55802,-5.440733 0.55802,-11.718503 0,-6.27777 -0.55802,-11.718504 -0.41852,-5.58024 -1.95309,-9.625914 -1.39506,-4.045674 -4.04567,-6.417276 -2.65062,-2.371602 -7.11481,-2.371602 -4.46419,0 -7.1148,2.371602 -2.65062,2.371602 -4.18518,6.556782 -1.39506,4.045674 -1.95309,9.486408 -0.41852,5.440734 -0.41852,11.718504 z m -17.43825,0 q 0,-22.32096 8.23086,-33.620946 8.23085,-11.439491 22.87898,-11.439491 15.20616,0 23.158,11.439491 7.95184,11.299986 7.95184,33.620946 0,22.320959 -8.09135,33.760447 -8.09135,11.29999 -22.87898,11.29999 -15.20616,0 -23.2975,-11.29999 -7.95185,-11.439488 -7.95185,-33.760447 z"
           style="font-family:'Ubuntu Mono';-inkscape-font-specification:'Ubuntu Mono Bold'"
           id="path375" /><path
           d="m 211.91601,104.01767 q 4.32469,0 7.11481,-0.83703 2.92962,-0.97655 4.6037,-2.51111 1.67407,-1.674074 2.23209,-3.627158 0.69753,-2.09259 0.69753,-4.18518 0,-2.650614 -1.53456,-4.743204 -1.53457,-2.09259 -3.90617,-3.627156 -2.3716,-1.674072 -5.30123,-2.929626 -2.92963,-1.395059 -5.85925,-2.511107 -3.90617,-1.39506 -8.09135,-3.208638 -4.18518,-1.813578 -7.67283,-4.603698 -3.34814,-2.79012 -5.58024,-6.835794 -2.2321,-4.18518 -2.2321,-10.323444 0,-12.137022 7.81234,-18.972815 7.95184,-6.835794 21.76294,-6.835794 7.95184,0 13.81109,1.813578 5.99876,1.813578 10.04443,4.045674 L 234.795,47.378237 q -3.48765,-1.953084 -7.81234,-3.348144 -4.18518,-1.39506 -9.76542,-1.39506 -13.67159,0 -13.67159,9.904926 0,2.511108 1.39506,4.464192 1.39506,1.813578 3.48765,3.348144 2.2321,1.39506 4.88271,2.511108 2.79012,1.116048 5.44074,2.09259 4.04567,1.534566 8.37036,3.48765 4.46419,1.813578 8.09134,5.022216 3.76667,3.069132 6.13827,7.812336 2.3716,4.603697 2.3716,11.718503 0,12.137022 -7.95184,18.833312 -7.81234,6.55678 -23.85553,6.55678 -10.74196,0 -17.15924,-2.2321 -6.41727,-2.3716 -9.62591,-4.32468 l 5.02222,-13.950602 q 3.76666,2.232092 8.92838,4.185182 5.30123,1.95308 12.83455,1.95308 z"
           style="font-family:'Ubuntu Mono';-inkscape-font-specification:'Ubuntu Mono Bold'"
           id="path377" /></g><path
         id="path6270"
         style="fill:#0000ff;stroke:none;stroke-width:0.111375;stroke-dasharray:none;stroke-dashoffset:0.2"
         d="m 52.264205,79.166917 c 0.130719,4.97398 0.13218,8.557222 0.501428,16.0977 L 59.90183,83.200903 c 0,0 -1.127491,-4.027537 -1.049116,-6.929634 -2.24204,1.135485 -4.379117,2.284651 -6.588551,2.895648 z"
         sodipodi:nodetypes="cccccc" /><path
         id="path7571"
         style="fill:#0000ff;stroke:none;stroke-width:0.111375;stroke-dasharray:none;stroke-dashoffset:0.2"
         d="m 45.695167,54.179818 c -5.702354,0.0099 -12.446856,1.022326 -20.475173,3.054892 0,0 8.205221,1.888654 12.479066,1.523112 l -8.948283,3.003905 c 0,0 6.620421,0.184198 11.789906,-0.553765 l -7.193363,3.715235 c 0,0 5.95279,0.152664 10.345937,-1.938695 l -6.338788,4.593308 c 0,0 5.478228,-0.108207 10.194318,-2.323181 l -5.198611,3.816208 c 0,0 5.851358,-1.067071 8.960413,-3.551556 l -4.938915,4.478062 c 0,0 5.297312,-1.522809 7.398456,-4.033414 l -3.094129,4.309795 c 0,0 3.747494,-2.134302 4.942222,-4.212913 0,0 0.467339,2.668709 -3.569384,5.180728 l -0.02369,5.946612 C 63.696546,73.585131 65.557848,66.097961 66.163758,61.898899 61.373539,56.760183 54.888797,54.165087 45.695188,54.179818 Z" /><path
         id="path7496"
         style="fill:#0000ff;stroke:none;stroke-width:0.111375;stroke-dasharray:none;stroke-dashoffset:0.2"
         d="m 65.932494,43.81033 c 0,0 -2.154863,5.081817 1.727362,7.577321 0,0 -0.989924,0.147272 -3.048923,-2.481246 l -9.556177,4.29484 c 4.532164,0.872923 8.365438,3.788634 10.895705,6.636927 0.176957,-1.226472 0.360722,-2.124939 1.285426,-2.38656 -1.795197,-0.575674 -3.119917,-1.645097 -3.426035,-2.599022 0,0 1.800008,2.144766 5.464348,2.465429 l 3.127213,3.666793 -1.154515,-4.699875 c 6.463595,-5.842853 -6.226411,-9.547709 -5.314383,-12.475052 z"
         sodipodi:nodetypes="cccccccccccc" /><path
         style="fill:#0000ff;stroke:none;stroke-width:0.111375;stroke-dasharray:none;stroke-dashoffset:0.2"
         d="m 52.703346,52.434467 c -12.680051,-2.176726 -13.949334,0.288307 -19.575639,-4.274059 2.804996,1.004337 4.441841,1.285342 6.304081,1.012675 -5.013673,-1.652006 -5.54986,-3.278149 -7.115542,-4.888475 2.097516,0.968794 3.380797,1.471836 6.802095,1.989472 -3.628374,-1.456038 -6.790071,-4.2524 -8.042785,-6.24129 2.945423,1.168343 2.749666,1.678973 6.952433,2.781254 0.155769,0.01382 -4.958674,-2.991993 -7.050322,-8.054451 3.067435,1.983818 4.927552,3.765236 7.553968,4.300327 0.431609,0.15037 -5.22234,-3.164506 -6.508534,-7.927743 0,0 28.217143,12.224033 29.776775,16.603349 -3.060948,1.404008 -6.104056,3.174432 -9.09653,4.698941 z"
         id="path7115"
         sodipodi:nodetypes="cccccccccccc" /><path
         id="path7367"
         style="font-weight:bold;font-size:132.173px;font-family:'Ubuntu Mono';-inkscape-font-specification:'Ubuntu Mono, Bold';fill:#0000ff;stroke:none;stroke-width:0.128063;stroke-dashoffset:0.2"
         d="m 95.564807,25.063415 c -5.838845,-0.0049 -13.420448,0.119107 -23.23203,0.01695 v 16.702957 h 23.6429 c 0.01471,12.830529 0.01775,22.048688 0.01344,34.879255 0,5.729659 -1.474985,9.673643 -4.424485,11.832641 -2.851195,2.075967 -6.636319,3.114292 -11.355538,3.114292 -3.146143,0 -6.243559,-0.622734 -9.291364,-1.868311 -2.949511,-1.245577 -5.652525,-2.533179 -8.110434,-3.861787 l -6.931573,12.206831 c 2.851196,1.909889 6.340927,3.529257 10.470229,4.857867 4.129303,1.32863 9.291477,1.99262 15.485436,1.99262 5.89901,0 10.913219,-0.70526 15.042522,-2.11691 4.12932,-1.49468 7.47211,-3.487983 10.02835,-5.979112 2.65455,-2.491171 4.52238,-5.397251 5.60386,-8.718804 1.17982,-3.321527 1.77011,-6.850804 1.77011,-10.587535 V 37.339349 C 114.20704,27.247605 108.93129,25.138228 95.564807,25.063415 Z"
         sodipodi:nodetypes="ccccccscccsscccscc" /></g></g></svg>
