<?xml version="1.0" encoding="UTF-8" standalone="no"?>
<!-- Created with Inkscape (http://www.inkscape.org/) -->

<svg
   width="248.66531mm"
   height="79.887512mm"
   viewBox="0 0 248.66531 79.887512"
   version="1.1"
   id="svg5"
   inkscape:version="1.2.2 (b0a8486541, 2022-12-01)"
   sodipodi:docname="jos-logo.svg"
   inkscape:export-filename="jos-logo.png"
   inkscape:export-xdpi="21.166666"
   inkscape:export-ydpi="21.166666"
   xml:space="preserve"
   xmlns:inkscape="http://www.inkscape.org/namespaces/inkscape"
   xmlns:sodipodi="http://sodipodi.sourceforge.net/DTD/sodipodi-0.dtd"
   xmlns="http://www.w3.org/2000/svg"
   xmlns:svg="http://www.w3.org/2000/svg"><sodipodi:namedview
     id="namedview7"
     pagecolor="#ffffff"
     bordercolor="#000000"
     borderopacity="0.25"
     inkscape:showpageshadow="2"
     inkscape:pageopacity="0.0"
     inkscape:pagecheckerboard="0"
     inkscape:deskcolor="#d1d1d1"
     inkscape:document-units="mm"
     showgrid="false"
     showborder="false"
     inkscape:zoom="0.47854832"
     inkscape:cx="507.78571"
     inkscape:cy="-92.989565"
     inkscape:window-width="1318"
     inkscape:window-height="740"
     inkscape:window-x="48"
     inkscape:window-y="0"
     inkscape:window-maximized="1"
     inkscape:current-layer="layer1"
     showguides="false" /><defs
     id="defs2" /><g
     inkscape:label="Layer 1"
     inkscape:groupmode="layer"
     id="layer1"
     transform="translate(-26.278327,-25.056279)"><path
       id="path6270"
       style="fill:#0178eb;fill-opacity:1;stroke:none;stroke-width:0.111375;stroke-dasharray:none;stroke-dashoffset:0.2"
       d="m 53.322538,79.166917 c 0.130719,4.97398 0.13218,8.557222 0.501428,16.0977 l 7.136197,-12.063714 c 0,0 -1.127491,-4.027537 -1.049116,-6.929634 -2.24204,1.135485 -4.379117,2.284651 -6.588551,2.895648 z"
       sodipodi:nodetypes="cccccc" /><path
       id="path7571"
       style="fill:#21a5fe;fill-opacity:1;stroke:none;stroke-width:0.111375;stroke-dasharray:none;stroke-dashoffset:0.2"
       d="m 46.7535,54.179818 c -5.702354,0.0099 -12.446856,1.022326 -20.475173,3.054892 0,0 8.205221,1.888654 12.479066,1.523112 l -8.948283,3.003905 c 0,0 6.620421,0.184198 11.789906,-0.553765 l -7.193363,3.715235 c 0,0 5.95279,0.152664 10.345937,-1.938695 l -6.338788,4.593308 c 0,0 5.478228,-0.108207 10.194318,-2.323181 l -5.198611,3.816208 c 0,0 5.851358,-1.067071 8.960413,-3.551556 l -4.938915,4.478062 c 0,0 5.297312,-1.522809 7.398456,-4.033414 l -3.094129,4.309795 c 0,0 3.747494,-2.134302 4.942222,-4.212913 0,0 0.467339,2.668709 -3.569384,5.180728 l -0.02369,5.946612 C 64.754879,73.585131 66.616181,66.097961 67.222091,61.898899 62.431872,56.760183 55.94713,54.165087 46.753521,54.179818 Z" /><path
       id="path7496"
       style="fill:#0178eb;fill-opacity:1;stroke:none;stroke-width:0.111375;stroke-dasharray:none;stroke-dashoffset:0.2"
       d="m 66.447525,43.710391 c 0,0 -1.831253,5.207188 2.200121,7.453793 0,0 -0.978712,0.20919 -3.198823,-2.284741 l -9.267393,4.88688 c 4.578063,0.586387 8.586989,3.255445 11.291247,5.939102 0.09953,-1.235169 0.226474,-2.143408 1.132909,-2.462622 -1.827825,-0.461722 -3.217131,-1.445784 -3.582591,-2.378586 0,0 1.931232,2.027411 5.60848,2.117166 l 3.351461,3.463025 -1.447582,-4.618034 c 6.083643,-6.237489 -6.814101,-9.137558 -6.087836,-12.116429 z"
       sodipodi:nodetypes="cccccccccccc" /><path
       style="fill:#21a5fe;fill-opacity:1;stroke:none;stroke-width:0.111375;stroke-dasharray:none;stroke-dashoffset:0.2"
       d="M 53.761679,52.434467 C 41.081628,50.257741 39.812345,52.722774 34.18604,48.160408 c 2.804996,1.004337 4.441841,1.285342 6.304081,1.012675 -5.013673,-1.652006 -5.54986,-3.278149 -7.115542,-4.888475 2.097516,0.968794 3.380797,1.471836 6.802095,1.989472 -3.628374,-1.456038 -6.790071,-4.2524 -8.042785,-6.24129 2.945423,1.168343 2.749666,1.678973 6.952433,2.781254 0.155769,0.01382 -4.958674,-2.991993 -7.050322,-8.054451 3.067435,1.983818 4.927552,3.765236 7.553968,4.300327 0.431609,0.15037 -5.22234,-3.164506 -6.508534,-7.927743 0,0 28.217143,12.224033 29.776775,16.603349 -3.060948,1.404008 -6.104056,3.174432 -9.09653,4.698941 z"
       id="path7115"
       sodipodi:nodetypes="cccccccccccc" /><g
       id="g222"
       transform="translate(77.737743,115.29337)"><g
         id="g3433"
         style="fill:#ffffff"
         transform="translate(-77.737742,-115.29337)"><path
           d="m 147.78357,65.000036 q 0,5.56492 0.47214,10.511515 0.62951,4.82293 2.20327,8.409212 1.73113,3.586282 4.72129,5.688588 2.99015,2.102302 8.02619,2.102302 4.87867,0 7.86881,-2.102302 3.14753,-2.102306 4.72129,-5.688588 1.73114,-3.709947 2.20328,-8.532877 0.6295,-4.82293 0.6295,-10.38785 0,-5.56492 -0.6295,-10.38785 -0.47214,-4.946595 -2.20328,-8.532877 -1.57376,-3.586282 -4.56391,-5.688585 -2.99015,-2.102303 -8.02619,-2.102303 -5.03604,0 -8.02619,2.102303 -2.99016,2.102303 -4.72129,5.81225 -1.57376,3.586281 -2.20327,8.409212 -0.47214,4.82293 -0.47214,10.38785 z m -19.67204,0 q 0,-19.786381 9.28521,-29.803237 9.2852,-10.14052 25.80972,-10.14052 17.15402,0 26.12447,10.14052 8.97045,10.016856 8.97045,29.803237 0,19.786381 -9.12783,29.926898 -9.12783,10.016856 -25.80971,10.016856 -17.15403,0 -26.28185,-10.016856 -8.97046,-10.140517 -8.97046,-29.926898 z"
           style="font-weight:bold;font-size:139.506px;font-family:'Ubuntu Mono';-inkscape-font-specification:'Ubuntu Mono Bold';fill:#ffffff;fill-opacity:1;stroke-width:0.112417;stroke-dashoffset:0.2"
           id="path3427" /><path
           d="m 239.06184,92.206309 q 4.87867,0 8.02619,-0.741984 3.3049,-0.865662 5.19342,-2.22597 1.88852,-1.483981 2.51802,-3.215289 0.78688,-1.854973 0.78688,-3.709947 0,-2.349632 -1.73113,-4.204606 -1.73115,-1.854973 -4.40654,-3.215287 -2.6754,-1.483978 -5.9803,-2.596962 -3.30491,-1.236648 -6.60981,-2.225967 -4.40654,-1.236649 -9.12783,-2.844293 -4.72129,-1.607643 -8.65569,-4.080941 -3.77703,-2.473298 -6.29506,-6.059579 -2.51802,-3.709947 -2.51802,-9.151202 0,-10.758845 8.81308,-16.818423 8.97044,-6.05958 24.55071,-6.05958 8.97044,0 15.58025,1.607644 6.76718,1.607643 11.33109,3.586281 l -5.66554,11.748164 q -3.93441,-1.731309 -8.81308,-2.967958 -4.72129,-1.236649 -11.01634,-1.236649 -15.42288,0 -15.42288,8.780207 0,2.225968 1.57376,3.957277 1.57376,1.607643 3.93441,2.967957 2.51802,1.236649 5.50817,2.225968 3.14753,0.989319 6.13768,1.854973 4.56391,1.360314 9.44258,3.091622 5.03604,1.607644 9.12782,4.451936 4.24917,2.720628 6.92456,6.925234 2.6754,4.08094 2.6754,10.387849 0,10.758845 -8.97045,16.694762 -8.81308,5.812244 -26.91135,5.812244 -12.11798,0 -19.35729,-1.97864 -7.23931,-2.1023 -10.85896,-3.833604 l 5.66555,-12.366491 q 4.24916,1.978635 10.07208,3.709949 5.9803,1.731305 14.47862,1.731305 z"
           style="font-weight:bold;font-size:139.506px;font-family:'Ubuntu Mono';-inkscape-font-specification:'Ubuntu Mono Bold';fill:#ffffff;fill-opacity:1;stroke-width:0.112417;stroke-dashoffset:0.2"
           id="path3429" /><path
           id="path3431"
           style="font-weight:bold;font-size:132.173px;font-family:'Ubuntu Mono';-inkscape-font-specification:'Ubuntu Mono, Bold';fill:#ffffff;fill-opacity:1;stroke:none;stroke-width:0.128063;stroke-dashoffset:0.2"
           d="m 95.564807,25.063415 c -5.838845,-0.0049 -13.420448,0.119107 -23.23203,0.01695 v 16.702957 h 23.6429 c 0.01471,12.830529 0.01775,22.048688 0.01344,34.879255 0,5.729659 -1.474985,9.673643 -4.424485,11.832641 -2.851195,2.075967 -6.636319,3.114292 -11.355538,3.114292 -3.146143,0 -6.243559,-0.622734 -9.291364,-1.868311 -2.949511,-1.245577 -5.652525,-2.533179 -8.110434,-3.861787 l -6.931573,12.206831 c 2.851196,1.909889 6.340927,3.529257 10.470229,4.857867 4.129303,1.32863 9.291477,1.99262 15.485436,1.99262 5.89901,0 10.913219,-0.70526 15.042522,-2.11691 4.12932,-1.49468 7.47211,-3.487983 10.02835,-5.979112 2.65455,-2.491171 4.52238,-5.397251 5.60386,-8.718804 1.17982,-3.321527 1.77011,-6.850804 1.77011,-10.587535 V 37.339349 C 114.20704,27.247605 108.93129,25.138228 95.564807,25.063415 Z"
           sodipodi:nodetypes="ccccccscccsscccscc" /></g></g></g></svg>
